<?xml version="1.0" encoding="utf-8"?>
<!-- Generator: Adobe Illustrator 14.0.0, SVG Export Plug-In . SVG Version: 6.00 Build 43363)  -->
<!DOCTYPE svg PUBLIC "-//W3C//DTD SVG 1.1//EN" "http://www.w3.org/Graphics/SVG/1.1/DTD/svg11.dtd">
<svg version="1.1" id="Layer_1" xmlns="http://www.w3.org/2000/svg" xmlns:xlink="http://www.w3.org/1999/xlink" x="0px" y="0px"
	 width="100px" height="100px" viewBox="0 0 100 100" enable-background="new 0 0 100 100" xml:space="preserve">
<path fill="#FFFFFF" d="M97.051,19.389c-1.926-1.816-4.959-1.728-6.777,0.199L36.367,76.754l-26.84-25.31
	c-1.925-1.815-4.959-1.727-6.775,0.199s-1.728,4.961,0.199,6.776l30.322,28.595c0.002,0.001,0.002,0.003,0.004,0.004
	c0.348,0.327,0.73,0.593,1.137,0.797c0.676,0.34,1.414,0.509,2.152,0.509c1.273,0,2.545-0.504,3.488-1.505
	c0.004-0.004,0.006-0.009,0.01-0.013L97.25,26.165C99.064,24.239,98.977,21.205,97.051,19.389z"/>
</svg>
