<?xml version="1.0" encoding="utf-8"?>
<!-- Generator: Adobe Illustrator 14.0.0, SVG Export Plug-In . SVG Version: 6.00 Build 43363)  -->
<!DOCTYPE svg PUBLIC "-//W3C//DTD SVG 1.1//EN" "http://www.w3.org/Graphics/SVG/1.1/DTD/svg11.dtd">
<svg version="1.1" id="Layer_1" xmlns="http://www.w3.org/2000/svg" xmlns:xlink="http://www.w3.org/1999/xlink" x="0px" y="0px"
	 width="100px" height="100px" viewBox="0 0 100 100" enable-background="new 0 0 100 100" xml:space="preserve">
<g>
	<path fill="#121212" d="M78.638,40.107c-7.633-3.816-17.758-5.918-28.51-5.918c-3.679,0-7.317,0.252-10.828,0.741L27.284,14.904
		c-0.252-0.421-0.753-0.621-1.225-0.49c-0.473,0.131-0.799,0.56-0.799,1.05v23.03c-10.085,3.96-15.852,9.984-15.852,16.601
		c0,5.728,4.336,11.048,12.21,14.987C29.25,73.898,39.376,76,50.128,76s20.877-2.102,28.51-5.918
		c7.874-3.939,12.211-9.26,12.211-14.987C90.849,49.368,86.512,44.046,78.638,40.107z M27.439,19.398L46.699,51.5l-19.26-12.841
		V19.398z M77.663,42.058c7.098,3.549,11.005,8.179,11.005,13.037s-3.907,9.487-11.005,13.036
		c-7.337,3.669-17.115,5.688-27.535,5.688s-20.199-2.02-27.536-5.688c-7.097-3.549-11.005-8.178-11.005-13.036
		c0-5.62,5.458-11.065,14.627-14.633l23.309,15.54c0.185,0.123,0.395,0.184,0.604,0.184c0.273,0,0.543-0.104,0.753-0.302"/>
</g>
</svg>
