<?xml version="1.0" encoding="utf-8"?>
<!-- Generator: Adobe Illustrator 14.0.0, SVG Export Plug-In . SVG Version: 6.00 Build 43363)  -->
<!DOCTYPE svg PUBLIC "-//W3C//DTD SVG 1.1//EN" "http://www.w3.org/Graphics/SVG/1.1/DTD/svg11.dtd">
<svg version="1.1" id="Layer_1" xmlns="http://www.w3.org/2000/svg" xmlns:xlink="http://www.w3.org/1999/xlink" x="0px" y="0px"
	 width="100px" height="100px" viewBox="0 0 100 100" enable-background="new 0 0 100 100" xml:space="preserve">
<path fill="#121212" d="M95.569,71.342c0.029-0.041,0.057-0.081,0.08-0.121c0.006-0.01,0.01-0.019,0.016-0.027
	c0.022-0.045,0.045-0.09,0.061-0.139c0.001,0,0.002-0.002,0.002-0.004c0.001-0.001,0.001-0.001,0.001-0.001
	c0.013-0.035,0.022-0.067,0.031-0.103c0.004-0.018,0.005-0.031,0.009-0.047c0.004-0.02,0.01-0.038,0.012-0.059
	c0.004-0.02,0.004-0.04,0.006-0.061c0.002-0.014,0.004-0.029,0.005-0.045c0.001-0.021,0-0.041,0-0.061c0-0.016,0.001-0.031,0-0.047
	c-0.001-0.02-0.004-0.038-0.005-0.059c-0.002-0.015-0.002-0.031-0.006-0.047c-0.002-0.021-0.008-0.041-0.012-0.062
	c-0.004-0.015-0.005-0.029-0.009-0.044c-0.007-0.027-0.016-0.057-0.026-0.084c-0.001-0.006-0.002-0.012-0.004-0.018
	c-0.012-0.034-0.026-0.068-0.043-0.102l0,0L83.802,45.217c-0.002,0-0.002-0.002-0.002-0.002l-0.002-0.008
	c-0.003-0.006-0.006-0.012-0.01-0.017c-0.008-0.017-0.016-0.031-0.024-0.046c-0.005-0.01-0.01-0.019-0.016-0.029
	c-0.005-0.008-0.009-0.015-0.014-0.021c-0.009-0.014-0.017-0.024-0.026-0.037c-0.006-0.01-0.012-0.021-0.019-0.029
	c-0.007-0.008-0.012-0.016-0.018-0.022c-0.009-0.011-0.017-0.022-0.026-0.031c-0.008-0.009-0.015-0.021-0.023-0.027
	c-0.006-0.007-0.013-0.015-0.02-0.022c-0.01-0.009-0.02-0.018-0.029-0.029c-0.009-0.007-0.018-0.016-0.025-0.023
	s-0.015-0.013-0.021-0.021c-0.01-0.009-0.022-0.019-0.033-0.025c-0.01-0.007-0.019-0.015-0.029-0.022
	c-0.006-0.006-0.014-0.011-0.021-0.016c-0.013-0.01-0.024-0.018-0.038-0.026c-0.01-0.005-0.018-0.011-0.029-0.017
	c-0.007-0.006-0.014-0.011-0.022-0.015c-0.014-0.007-0.028-0.015-0.043-0.024c-0.009-0.003-0.018-0.008-0.026-0.012
	c-0.01-0.004-0.018-0.008-0.027-0.014c-0.015-0.005-0.029-0.011-0.044-0.016c-0.005-0.004-0.01-0.006-0.016-0.008
	c-0.003-0.002-0.007-0.004-0.012-0.004l-0.002-0.002c-0.003,0-0.005-0.002-0.009-0.004L15.814,20.13
	c-0.28-0.101-0.59-0.085-0.857,0.048c-0.267,0.134-0.469,0.369-0.557,0.655L4.493,52.895c-0.171,0.555,0.123,1.146,0.668,1.346
	l67.372,24.521c0.005,0.001,0.009,0.003,0.015,0.005c0.012,0.004,0.023,0.01,0.036,0.014c0.03,0.009,0.061,0.013,0.09,0.02
	c0.019,0.004,0.038,0.01,0.058,0.014c0.059,0.009,0.115,0.014,0.172,0.014c0.001,0,0.002,0,0.003,0l0,0l0,0c0.003,0,0.005,0,0.009,0
	c0.053,0,0.106-0.005,0.16-0.012c0.02-0.004,0.041-0.01,0.062-0.016c0.033-0.007,0.066-0.014,0.1-0.023
	c0.023-0.008,0.045-0.019,0.067-0.027c0.029-0.012,0.06-0.022,0.087-0.037c0.023-0.011,0.043-0.023,0.064-0.037
	c0.026-0.016,0.055-0.031,0.078-0.047c0.021-0.016,0.04-0.033,0.061-0.049c0.023-0.02,0.047-0.038,0.069-0.061
	c0.019-0.018,0.036-0.038,0.054-0.059c0.02-0.021,0.04-0.043,0.058-0.065c0.017-0.024,0.031-0.048,0.047-0.071
	c0.015-0.024,0.031-0.049,0.045-0.076c0.014-0.023,0.024-0.051,0.036-0.078c0.009-0.019,0.02-0.037,0.027-0.057
	c0.004-0.014,0.006-0.024,0.01-0.035c0.002-0.006,0.005-0.012,0.007-0.018l3.806-12.316l16.58,5.965
	c0.01,0.004,0.02,0.006,0.029,0.01c0.038,0.01,0.078,0.021,0.117,0.03c0.018,0.004,0.037,0.008,0.055,0.011
	c0.051,0.008,0.102,0.012,0.153,0.014c0.005,0,0.011,0.002,0.015,0.002c0.002,0,0.005,0,0.008,0
	c0.045-0.002,0.092-0.006,0.139-0.014c0.016-0.002,0.029-0.004,0.043-0.005c0.037-0.008,0.075-0.017,0.111-0.026
	c0.012-0.004,0.024-0.007,0.037-0.011c0.043-0.015,0.088-0.031,0.131-0.052c0.002,0,0.004-0.002,0.004-0.002
	c0.008-0.005,0.016-0.009,0.023-0.012c0.037-0.02,0.072-0.041,0.106-0.062c0.011-0.008,0.021-0.016,0.031-0.022
	c0.038-0.027,0.077-0.058,0.11-0.09c0.005-0.004,0.01-0.009,0.016-0.013c0.031-0.031,0.061-0.064,0.087-0.098
	C95.556,71.357,95.563,71.35,95.569,71.342z M16.146,22.57l65.32,23.775L72.203,76.32L6.882,52.547L16.146,22.57z"/>
</svg>
