<?xml version="1.0" encoding="utf-8"?>
<!-- Generator: Adobe Illustrator 14.0.0, SVG Export Plug-In . SVG Version: 6.00 Build 43363)  -->
<!DOCTYPE svg PUBLIC "-//W3C//DTD SVG 1.1//EN" "http://www.w3.org/Graphics/SVG/1.1/DTD/svg11.dtd">
<svg version="1.1" id="Layer_1" xmlns="http://www.w3.org/2000/svg" xmlns:xlink="http://www.w3.org/1999/xlink" x="0px" y="0px"
	 width="100px" height="100px" viewBox="0 0 100 100" enable-background="new 0 0 100 100" xml:space="preserve">
<path fill="#121212" d="M96.175,55.32L81.306,40.451c-0.295-0.295-0.733-0.396-1.128-0.259l-13.306,4.625v-6.054l7.578-2.635
	c0.354-0.123,0.621-0.42,0.704-0.786c0.085-0.366-0.025-0.749-0.291-1.014L56.825,16.29c-0.297-0.295-0.734-0.396-1.13-0.259
	L20.232,28.357c0,0-0.001,0-0.001,0l-0.006,0.002c-0.05,0.017-0.098,0.039-0.144,0.063c-0.004,0.001-0.008,0.003-0.012,0.005
	L4.001,37.018c-0.394,0.21-0.618,0.639-0.57,1.082c0.049,0.443,0.363,0.812,0.792,0.93l4.685,1.298v26.756
	c0,0.484,0.32,0.912,0.786,1.047l25.062,7.279c0.027,0.008,0.054,0.012,0.081,0.018c0.022,0.005,0.043,0.011,0.064,0.014
	c0.04,0.006,0.08,0.008,0.12,0.01c0.013,0,0.025,0.002,0.039,0.002c0.032,0,0.065-0.004,0.097-0.008
	c0.026-0.002,0.052-0.002,0.079-0.006c0.02-0.003,0.039-0.01,0.059-0.014c0.039-0.01,0.078-0.018,0.116-0.031
	c0.002,0,0.005,0,0.007-0.002l6.482-2.253v3.579c0,0.484,0.32,0.912,0.786,1.047l18.497,5.373c0.025,0.007,0.054,0.011,0.08,0.016
	c0.021,0.006,0.043,0.012,0.065,0.016c0.039,0.005,0.079,0.007,0.12,0.009c0.013,0,0.025,0.003,0.039,0.003
	c0.039,0,0.078-0.005,0.117-0.01c0.02-0.002,0.038-0.002,0.057-0.004c0.019-0.004,0.037-0.01,0.057-0.016
	c0.039-0.007,0.079-0.016,0.119-0.029c0.002,0,0.004,0,0.005-0.002l24.702-8.52c0.008-0.002,0.016-0.006,0.023-0.01
	c0.023-0.008,0.045-0.017,0.066-0.026c0.014-0.007,0.026-0.013,0.039-0.02c0.019-0.009,0.037-0.019,0.055-0.027
	c0.016-0.009,0.029-0.019,0.045-0.028c0.015-0.008,0.028-0.018,0.042-0.027c0.017-0.012,0.032-0.023,0.048-0.036
	c0.011-0.009,0.023-0.019,0.035-0.028c0.016-0.012,0.029-0.027,0.045-0.041c0.01-0.01,0.021-0.02,0.031-0.029
	c0.014-0.016,0.027-0.029,0.039-0.045c0.012-0.013,0.021-0.023,0.031-0.037c0.011-0.014,0.021-0.029,0.032-0.043
	c0.01-0.016,0.021-0.029,0.03-0.045c0.008-0.012,0.017-0.027,0.025-0.04c0.01-0.018,0.019-0.034,0.027-0.054
	c0.007-0.012,0.014-0.025,0.019-0.037c0.009-0.02,0.018-0.039,0.024-0.058c0.006-0.015,0.011-0.028,0.016-0.04
	c0.007-0.02,0.014-0.039,0.02-0.059c0.003-0.016,0.007-0.031,0.01-0.047c0.006-0.018,0.01-0.037,0.014-0.055
	c0.004-0.019,0.006-0.037,0.008-0.057c0.002-0.016,0.005-0.031,0.006-0.047c0.002-0.021,0.002-0.045,0.002-0.067
	c0.002-0.009,0.002-0.019,0.002-0.027V60.068l8.48-2.949c0.355-0.123,0.621-0.42,0.705-0.785S96.439,55.584,96.175,55.32z
	 M40.97,58.143l10.129-5.416L62.47,64.098L40.97,58.143z M85.102,72.795l-22.523,7.768V66.389l3.298,0.914
	c0.018,0.005,0.035,0.008,0.053,0.012c0.017,0.004,0.033,0.008,0.05,0.009c0.062,0.011,0.126,0.019,0.188,0.019
	c0.055,0,0.109-0.004,0.164-0.013c0.016-0.002,0.031-0.007,0.048-0.009c0.038-0.009,0.077-0.02,0.115-0.029
	c0.011-0.004,0.021-0.006,0.03-0.009l18.577-6.457V72.795z M50.948,50.353h-0.002l-0.006,0.003
	c-0.051,0.017-0.098,0.038-0.145,0.062c-0.004,0.002-0.008,0.004-0.012,0.006L37.54,57.503c-0.393,0.21-0.619,0.64-0.569,1.081
	c0.049,0.443,0.363,0.812,0.792,0.932l4.139,1.145v10.172l-5.75,1.999V47.875l2.178,0.604c0.019,0.005,0.036,0.007,0.054,0.011
	c0.017,0.005,0.033,0.007,0.05,0.011c0.062,0.011,0.125,0.019,0.188,0.019c0.056,0,0.11-0.006,0.164-0.015
	c0.016-0.002,0.032-0.006,0.047-0.009c0.04-0.008,0.079-0.019,0.117-0.03c0.01-0.002,0.02-0.004,0.029-0.007l25.712-8.938v6.055
	L50.948,50.353z M55.767,18.314l16.326,16.326L38.909,46.174L22.583,29.848L55.767,18.314z M20.384,30.732l14.542,14.542
	l-12.466-3.454l-12.169-3.371c0,0-0.001,0-0.001,0l-2.858-0.792L20.384,30.732z M33.972,72.912l-22.883-6.646V40.931L22.164,44
	l11.808,3.271V72.912z M44.081,75.9V61.265l16.318,4.521V80.64L44.081,75.9z M66.454,64.999L53.298,51.843l26.949-9.367
	l13.156,13.157L66.454,64.999z"/>
</svg>
