<?xml version="1.0" encoding="utf-8"?>
<!-- Generator: Adobe Illustrator 14.0.0, SVG Export Plug-In . SVG Version: 6.00 Build 43363)  -->
<!DOCTYPE svg PUBLIC "-//W3C//DTD SVG 1.1//EN" "http://www.w3.org/Graphics/SVG/1.1/DTD/svg11.dtd">
<svg version="1.1" id="Layer_1" xmlns="http://www.w3.org/2000/svg" xmlns:xlink="http://www.w3.org/1999/xlink" x="0px" y="0px"
	 width="100px" height="100px" viewBox="0 0 100 100" enable-background="new 0 0 100 100" xml:space="preserve">
<g>
	<path fill="#121212" d="M61.312,36.827c0-6.72-5.466-12.187-12.187-12.187c-6.719,0-12.187,5.467-12.187,12.187
		c0,6.722,5.468,12.188,12.187,12.188C55.846,49.016,61.312,43.549,61.312,36.827z M39.118,36.827
		c0-5.519,4.49-10.007,10.007-10.007c5.519,0,10.008,4.488,10.008,10.007s-4.489,10.008-10.008,10.008
		C43.607,46.835,39.118,42.346,39.118,36.827z"/>
	<path fill="#121212" d="M73.995,74.943c0-3.064-6.099-4.641-11.66-5.439c4.889-7.46,7.654-13.888,9.211-18.67
		c2.073-6.369,2.418-10.896,2.449-12.916V37.82c0.002-0.167,0.002-0.313,0-0.443v-0.55c0-13.712-11.156-24.869-24.87-24.869
		c-13.701,0-24.85,11.137-24.871,24.833c-0.037,0.57-0.271,5.742,2.431,14.043c1.556,4.782,4.322,11.212,9.212,18.672
		c-5.472,0.789-11.465,2.329-11.639,5.305c-0.055,0.322-0.047,0.871,0.342,1.58c1.809,3.293,10.198,6.767,24.259,10.047l0.001-0.002
		l0.02,0.006l0.006-0.016l0.227-0.111l0.233,0.111l0.006,0.016l-0.004-0.014l0.023,0.01c14.062-3.28,22.45-6.754,24.259-10.047
		c0.338-0.615,0.389-1.109,0.36-1.441L73.995,74.943z M26.431,36.912l0.003-0.085c0-12.512,10.179-22.69,22.69-22.69
		c12.146,0,22.096,9.595,22.665,21.604h-0.076l0.085,1.17c0.005,0.049,0.338,5.141-2.374,13.396
		c-2.454,7.479-7.969,19.121-20.309,32.475c-12.341-13.354-17.855-24.996-20.31-32.475C26.094,42.051,26.427,36.959,26.431,36.912z"
		/>
</g>
</svg>
