<?xml version="1.0" encoding="utf-8"?>
<!-- Generator: Adobe Illustrator 14.0.0, SVG Export Plug-In . SVG Version: 6.00 Build 43363)  -->
<!DOCTYPE svg PUBLIC "-//W3C//DTD SVG 1.1//EN" "http://www.w3.org/Graphics/SVG/1.1/DTD/svg11.dtd">
<svg version="1.1" id="Layer_1" xmlns="http://www.w3.org/2000/svg" xmlns:xlink="http://www.w3.org/1999/xlink" x="0px" y="0px"
	 width="100px" height="100px" viewBox="0 0 100 100" enable-background="new 0 0 100 100" xml:space="preserve">
<path fill="#121212" d="M97.054,63.877c0.012-0.017,0.022-0.033,0.034-0.05c0.009-0.013,0.018-0.027,0.026-0.04
	c0.009-0.017,0.018-0.031,0.026-0.048c0.009-0.015,0.017-0.033,0.024-0.05c0.007-0.013,0.014-0.027,0.02-0.042
	c0.008-0.019,0.015-0.037,0.021-0.057c0.006-0.014,0.01-0.025,0.016-0.041c0.005-0.02,0.011-0.04,0.016-0.061
	c0.004-0.013,0.008-0.027,0.011-0.042c0.003-0.019,0.007-0.038,0.01-0.058c0.002-0.016,0.005-0.032,0.007-0.049
	c0.002-0.019,0.002-0.035,0.004-0.051c0.002-0.021,0.002-0.041,0.002-0.061c0-0.016,0-0.03,0-0.043
	c-0.002-0.023-0.004-0.048-0.006-0.072c0-0.005,0-0.012-0.001-0.018L94.94,43.349c0-0.001-0.002-0.005-0.002-0.007
	c-0.005-0.048-0.014-0.094-0.025-0.14c-0.004-0.007-0.006-0.015-0.007-0.022c-0.011-0.037-0.022-0.073-0.038-0.108
	c-0.004-0.013-0.01-0.026-0.016-0.039c-0.004-0.009-0.007-0.019-0.012-0.028c-0.013-0.025-0.026-0.051-0.042-0.077
	c-0.003-0.005-0.006-0.011-0.009-0.017c-0.023-0.039-0.051-0.077-0.078-0.112c-0.006-0.007-0.012-0.015-0.019-0.022
	c-0.026-0.029-0.052-0.059-0.079-0.086c-0.006-0.005-0.013-0.011-0.019-0.017c-0.034-0.031-0.069-0.061-0.107-0.088
	c-0.005-0.004-0.012-0.007-0.017-0.011c-0.033-0.022-0.066-0.042-0.101-0.061c-0.011-0.005-0.021-0.011-0.032-0.017
	c-0.041-0.02-0.082-0.037-0.124-0.051c-0.002-0.002-0.003-0.002-0.007-0.003l-9.398-3.197l-3.965-17.909
	c0.053-0.434-0.158-0.874-0.565-1.093l-16.591-8.913c-0.011-0.006-0.021-0.009-0.031-0.015c-0.016-0.007-0.031-0.015-0.047-0.022
	c-0.018-0.007-0.035-0.015-0.053-0.022c-0.015-0.005-0.03-0.011-0.045-0.017c-0.02-0.005-0.039-0.011-0.059-0.016
	c-0.014-0.004-0.029-0.007-0.043-0.011c-0.02-0.003-0.039-0.009-0.059-0.011c-0.016-0.004-0.031-0.006-0.049-0.008
	c-0.018-0.001-0.035-0.003-0.054-0.005s-0.036-0.002-0.054-0.002s-0.033-0.001-0.049,0c-0.021,0-0.041,0.002-0.061,0.002
	c-0.014,0.002-0.029,0.004-0.043,0.005c-0.021,0.002-0.042,0.006-0.062,0.009c-0.014,0.002-0.027,0.006-0.042,0.007
	c-0.021,0.006-0.04,0.009-0.06,0.015c-0.016,0.006-0.031,0.009-0.046,0.015c-0.017,0.006-0.034,0.011-0.054,0.019
	c-0.018,0.007-0.034,0.015-0.051,0.022c-0.01,0.004-0.019,0.007-0.027,0.011L16.219,33.547c-0.179,0.084-0.323,0.215-0.428,0.367
	c-0.001,0-0.001,0.001-0.002,0.001c-0.021,0.019-0.043,0.037-0.063,0.057c-0.005,0.005-0.01,0.011-0.016,0.019
	c-0.019,0.018-0.038,0.039-0.055,0.061c-0.005,0.005-0.01,0.013-0.015,0.018c-0.018,0.024-0.035,0.046-0.051,0.07
	c-0.004,0.005-0.008,0.013-0.012,0.019c-0.015,0.024-0.03,0.049-0.043,0.075c-0.002,0.002-0.004,0.005-0.006,0.009
	c-0.002,0.003-0.004,0.009-0.007,0.015c-0.011,0.024-0.022,0.048-0.032,0.071c-0.005,0.013-0.01,0.024-0.015,0.037
	c-0.007,0.02-0.014,0.04-0.02,0.061c-0.005,0.017-0.01,0.035-0.015,0.053c-0.004,0.015-0.008,0.031-0.011,0.046
	c-0.004,0.022-0.008,0.046-0.011,0.068c-0.001,0.007-0.003,0.015-0.004,0.024l-1.005,8.397l-8.802,3.828
	c-0.005,0.001-0.01,0.005-0.016,0.007c-0.033,0.015-0.065,0.031-0.096,0.049c-0.011,0.005-0.021,0.013-0.032,0.02
	c-0.03,0.019-0.058,0.037-0.086,0.059c-0.006,0.005-0.014,0.009-0.019,0.015c-0.034,0.027-0.066,0.057-0.096,0.088
	c-0.005,0.004-0.009,0.009-0.014,0.015c-0.024,0.026-0.047,0.053-0.07,0.081c-0.008,0.011-0.016,0.022-0.023,0.031
	c-0.017,0.025-0.034,0.051-0.049,0.079c-0.007,0.011-0.015,0.022-0.021,0.033c-0.003,0.005-0.006,0.011-0.009,0.017
	c-0.017,0.031-0.03,0.062-0.043,0.096c-0.001,0.001-0.002,0.001-0.003,0.003c-0.017,0.042-0.029,0.084-0.041,0.126
	c-0.002,0.008-0.004,0.017-0.006,0.026c-0.008,0.035-0.016,0.072-0.02,0.106C4.96,47.7,4.958,47.706,4.958,47.711L2.867,65.173
	c-0.054,0.45,0.176,0.885,0.578,1.094l20.909,10.914l0,0l22.074,11.542c0.041,0.021,0.082,0.038,0.124,0.056
	c0.003,0.001,0.007,0.001,0.012,0.003c0.013,0.004,0.026,0.007,0.039,0.011c0.17,0.104,0.365,0.158,0.564,0.158
	c0.165,0,0.332-0.039,0.489-0.117l49.016-24.637c0.006-0.002,0.012-0.006,0.018-0.01c0.021-0.01,0.041-0.021,0.061-0.034
	c0.012-0.007,0.024-0.015,0.036-0.022c0.018-0.011,0.033-0.023,0.05-0.035c0.014-0.01,0.026-0.021,0.04-0.032
	c0.013-0.009,0.026-0.021,0.038-0.033c0.014-0.013,0.029-0.026,0.042-0.04c0.011-0.01,0.021-0.021,0.03-0.031
	c0.015-0.016,0.028-0.031,0.041-0.047C97.036,63.899,97.044,63.888,97.054,63.877z M15.575,51.589l1.813-15.146L32.2,44.174
	l1.814,17.037l-15.116-7.889L15.575,51.589z M63.144,13.514l14.217,7.639L33.243,42.259l-14.436-7.535L63.144,13.514z
	 M43.697,66.266l-5.938-3.099L84.01,41.276l6.966,2.37L43.697,66.266z M36.234,61.478l-1.847-17.35l44.552-21.315l3.699,16.703
	L36.234,61.478z M25.943,59.458l0.499,0.26c0,0.002,0.001,0.002,0.003,0.002l16.242,8.477l2.825,17.587L25.947,75.554L25.943,59.458
	z M47.805,86.319l-2.924-18.203l48.073-22.999l2.056,17.475L47.805,86.319z M13.509,50.511l-4.942-2.579l5.54-2.411L13.509,50.511z
	 M6.935,49.538l6.963,3.635c0,0,0.001,0,0.001,0l4.128,2.154l4.236,2.211c0,0,0.001,0.001,0.001,0.001l1.499,0.782l0.005,16.094
	l-18.647-9.73L6.935,49.538z"/>
</svg>
