<?xml version="1.0" encoding="utf-8"?>
<!-- Generator: Adobe Illustrator 14.0.0, SVG Export Plug-In . SVG Version: 6.00 Build 43363)  -->
<!DOCTYPE svg PUBLIC "-//W3C//DTD SVG 1.1//EN" "http://www.w3.org/Graphics/SVG/1.1/DTD/svg11.dtd">
<svg version="1.1" id="Layer_1" xmlns="http://www.w3.org/2000/svg" xmlns:xlink="http://www.w3.org/1999/xlink" x="0px" y="0px"
	 width="100px" height="100px" viewBox="0 0 100 100" enable-background="new 0 0 100 100" xml:space="preserve">
<path fill="#121212" d="M89.301,40.25L49.67,17.462c-0.336-0.194-0.75-0.194-1.086,0L8.954,40.25
	c-0.338,0.192-0.547,0.553-0.547,0.943c0,0.389,0.209,0.751,0.547,0.945l17.287,9.939v0.014v5.3v12.972
	c0,0.225,0.071,0.449,0.204,0.635c0.041,0.057,0.087,0.109,0.139,0.158c8.608,8.133,15.008,9.767,22.544,9.767
	c7.627,0,15.84-3.558,22.537-9.76c0.223-0.208,0.35-0.495,0.35-0.8l-0.001-18.271v-0.014l17.287-9.939
	c0.339-0.194,0.548-0.557,0.548-0.945C89.849,40.803,89.64,40.442,89.301,40.25z M49.128,78.744c-7.082,0-12.767-1.46-20.708-8.854
	V59.275l20.164,11.594c0.168,0.098,0.355,0.146,0.543,0.146c0.187,0,0.375-0.048,0.542-0.146l20.165-11.594v10.607
	C63.604,75.52,56.081,78.744,49.128,78.744z M49.128,62.723L11.684,41.193l37.444-21.53l37.443,21.53L49.128,62.723z"/>
</svg>
