<?xml version="1.0" encoding="utf-8"?>
<!-- Generator: Adobe Illustrator 14.0.0, SVG Export Plug-In . SVG Version: 6.00 Build 43363)  -->
<!DOCTYPE svg PUBLIC "-//W3C//DTD SVG 1.1//EN" "http://www.w3.org/Graphics/SVG/1.1/DTD/svg11.dtd">
<svg version="1.1" id="Layer_1" xmlns="http://www.w3.org/2000/svg" xmlns:xlink="http://www.w3.org/1999/xlink" x="0px" y="0px"
	 width="100px" height="100px" viewBox="0 0 100 100" enable-background="new 0 0 100 100" xml:space="preserve">
<path fill="#121212" d="M84.933,61.485c-0.16-0.427-0.566-0.707-1.021-0.707H64.882V19.645c0-0.603-0.489-1.091-1.092-1.091H47.939
	c-0.602,0-1.09,0.488-1.09,1.091v16.744H32.087c-0.603,0-1.09,0.486-1.09,1.088v18.727H16.234c-0.602,0-1.09,0.486-1.09,1.089
	v21.796c0,0.603,0.488,1.091,1.09,1.091h15.853h15.852H63.79c0.09,0,0.177-0.013,0.26-0.033c0.057,0.009,0.113,0.015,0.17,0.015
	c0.254,0,0.51-0.088,0.716-0.268L84.63,62.688C84.971,62.391,85.093,61.909,84.933,61.485z M17.324,58.383h13.673V78H17.324V58.383z
	 M33.176,57.292V38.567h13.672V78H33.176V57.292z M62.701,78H49.029V37.477V20.732h13.672V78z"/>
</svg>
