<?xml version="1.0" encoding="utf-8"?>
<!-- Generator: Adobe Illustrator 14.0.0, SVG Export Plug-In . SVG Version: 6.00 Build 43363)  -->
<!DOCTYPE svg PUBLIC "-//W3C//DTD SVG 1.1//EN" "http://www.w3.org/Graphics/SVG/1.1/DTD/svg11.dtd">
<svg version="1.1" id="Layer_1" xmlns="http://www.w3.org/2000/svg" xmlns:xlink="http://www.w3.org/1999/xlink" x="0px" y="0px"
	 width="100px" height="100px" viewBox="0 0 100 100" enable-background="new 0 0 100 100" xml:space="preserve">
<path fill="#FFFFFF" d="M56.36,53.888l26.086-26.085c1.872-1.872,1.872-4.907,0-6.779c-1.872-1.873-4.907-1.873-6.78,0
	L49.581,47.108L23.496,21.024c-1.873-1.873-4.908-1.873-6.78,0c-1.872,1.872-1.872,4.907,0,6.779l26.085,26.085L16.716,79.974
	c-1.872,1.872-1.872,4.907,0,6.779c0.936,0.937,2.163,1.404,3.39,1.404c1.227,0,2.454-0.468,3.39-1.404l26.085-26.086l26.085,26.086
	c0.937,0.937,2.164,1.404,3.391,1.404s2.453-0.468,3.39-1.404c1.872-1.872,1.872-4.907,0-6.779L56.36,53.888z"/>
</svg>
